<svg width="370" height="405" viewBox="0 0 370 405" fill="none" xmlns="http://www.w3.org/2000/svg">
<g clip-path="url(#clip0_419_5)">
<path d="M155.91 121.316H247.782C254.496 121.316 259.941 115.872 259.941 109.157C259.941 77.121 233.877 51.0608 201.844 51.0608C169.811 51.0608 143.748 77.121 143.748 109.157C143.748 115.872 149.192 121.316 155.91 121.316ZM201.844 75.3814C216.185 75.3814 228.467 84.3638 233.358 96.9984H170.33C175.222 84.3638 187.504 75.3814 201.844 75.3814Z" fill="white" fill-opacity="0.1"/>
<path d="M376.156 357.246H351.671V331.287H376.156C382.87 331.287 388.315 325.843 388.315 319.125C388.315 312.411 382.87 306.967 376.156 306.967H351.671V295.692C351.671 288.977 346.227 283.533 339.513 283.533H307.133C277.807 283.533 253.27 304.424 247.622 332.106H242.276C233.393 332.106 226.166 324.879 226.166 315.995V306.321C226.166 284.027 208.031 265.889 185.737 265.889C163.444 265.889 145.309 284.027 145.309 306.321V315.995C145.309 324.879 138.082 332.106 129.198 332.106H102.233C83.653 332.106 68.5372 316.99 68.5372 298.411V218.064H70.1377C75.5574 239.131 94.7118 254.744 117.447 254.744C140.18 254.744 159.334 239.128 164.751 218.064H238.939C244.356 239.131 263.51 254.744 286.246 254.744C308.981 254.744 328.136 239.131 333.552 218.064H374.129C380.843 218.064 386.288 212.619 386.288 205.902V184.443C386.288 140.248 353.263 103.617 310.594 97.9438C304.875 42.9898 258.285 0 201.845 0C145.405 0 98.8152 42.9898 93.0957 97.9438C50.4272 103.617 17.4023 140.248 17.4023 184.443V205.902C17.4023 212.619 22.8468 218.064 29.5611 218.064H44.2165V298.411C44.2165 330.4 70.2397 356.427 102.229 356.427H129.195C151.489 356.427 169.627 338.289 169.627 315.995V306.321C169.627 297.437 176.854 290.21 185.734 290.21C194.618 290.21 201.845 297.437 201.845 306.321V315.995C201.845 338.289 219.983 356.427 242.273 356.427H247.622C253.27 384.106 277.807 405 307.13 405H339.509C346.227 405 351.668 399.556 351.668 392.841V381.566H376.156C382.87 381.566 388.315 376.122 388.315 369.404C388.315 362.69 382.87 357.246 376.156 357.246ZM141.966 205.902C141.966 219.423 130.966 230.423 117.444 230.423C103.923 230.423 92.9227 219.423 92.9227 205.902C92.9227 192.384 103.923 181.381 117.444 181.381C130.966 181.381 141.966 192.381 141.966 205.902ZM310.767 205.902C310.767 219.423 299.767 230.423 286.246 230.423C272.724 230.423 261.724 219.423 261.724 205.902C261.724 192.384 272.724 181.381 286.246 181.381C299.767 181.381 310.767 192.381 310.767 205.902ZM41.723 184.443C41.723 149.734 69.9585 121.498 104.667 121.498C111.382 121.498 116.826 116.054 116.826 109.336C116.826 62.4593 154.965 24.3206 201.845 24.3206C248.725 24.3206 286.864 62.4593 286.864 109.336C286.864 116.054 292.308 121.498 299.026 121.498C333.731 121.498 361.97 149.734 361.97 184.443V193.743H333.552C328.136 172.676 308.981 157.063 286.246 157.063C263.51 157.063 244.356 172.676 238.939 193.743H164.751C159.334 172.676 140.18 157.063 117.444 157.063C94.7087 157.063 75.5544 172.676 70.1377 193.743H41.723V184.443ZM327.351 380.679H307.13C287.052 380.679 270.716 364.346 270.716 344.265C270.716 324.187 287.052 307.85 307.13 307.85H327.351V380.679Z" fill="white" fill-opacity="0.1"/>
</g>
<defs>
<clipPath id="clip0_419_5">
<rect width="405" height="405" fill="white"/>
</clipPath>
</defs>
</svg>
