<svg width="37" height="37" viewBox="0 0 37 37" fill="none" xmlns="http://www.w3.org/2000/svg">
<path d="M37 37H0V0H18.5204V1.63173H1.63173V35.3683H35.3683V18.5204H37V37Z" fill="#004870"/>
<path d="M36.9998 13.8699H35.368V1.63173H23.1299V0H36.9998V13.8699Z" fill="#EB6332"/>
<g clip-path="url(#clip0_58_2)">
<path d="M16.7507 31.0001C16.368 30.9395 15.9843 30.8869 15.603 30.8174C13.7255 30.4756 12.0691 29.667 10.634 28.4156C8.84008 26.8515 7.66793 24.9009 7.21804 22.5657C6.57936 19.2511 7.34389 16.2604 9.51021 13.6646C11.0961 11.7643 13.1389 10.5993 15.5654 10.1175C16.0524 10.0208 16.5511 9.98324 17.079 9.91422C17.079 9.81091 17.079 9.68882 17.079 9.56721C17.079 8.87976 17.0775 8.19232 17.0799 7.50487C17.0808 7.17195 17.2522 7.0015 17.5852 7.00056C23.2764 6.98271 28.4506 10.4458 30.3098 15.9294C30.654 16.9446 30.8752 17.9856 30.9565 19.0557C30.9612 19.1163 30.9851 19.175 31.0006 19.2346V20.4067C30.8334 20.633 30.6094 20.6969 30.3323 20.6894C29.7312 20.6734 29.1297 20.6842 28.5281 20.6842H28.0796C28.0679 20.8204 28.0599 20.9284 28.0496 21.0359C28.0139 21.4083 27.9998 21.7844 27.9383 22.1525C27.6279 24.0144 26.8863 25.6879 25.6794 27.1417C24.056 29.0969 21.9977 30.3357 19.4946 30.8155C19.0983 30.8916 18.6968 30.9395 18.2981 31.0006H16.7512L16.7507 31.0001ZM10.0902 14.4033C8.82928 15.9881 8.12862 17.7475 7.96848 19.7526C8.56723 19.7526 9.12842 19.7512 9.68914 19.753C10.0033 19.754 10.2264 19.9493 10.2259 20.2165C10.2259 20.4842 10.0033 20.6814 9.68914 20.6828C9.18149 20.6856 8.67384 20.6837 8.16618 20.6837C8.09246 20.6837 8.0192 20.6837 7.9342 20.6837C8.03751 23.164 8.90817 25.2784 10.5326 27.0243C10.8899 26.6923 11.2285 26.3796 11.5648 26.0649C11.7071 25.9316 11.8841 25.8475 12.0518 25.9485C12.1832 26.0279 12.3255 26.1795 12.3504 26.319C12.3739 26.45 12.2819 26.6359 12.1837 26.7482C11.893 27.0811 11.5742 27.3896 11.2529 27.7211C12.9454 29.1523 14.8699 29.9257 17.0869 30.052C17.0869 29.5829 17.0869 29.1317 17.0869 28.6804C17.0869 28.2437 17.2565 28.0043 17.5622 28.008C17.8627 28.0118 18.0163 28.2343 18.0163 28.6673C18.0163 29.1256 18.0163 29.5839 18.0163 30.0511C20.2352 29.9168 22.1583 29.1397 23.7953 27.7408C23.5925 27.5201 23.4117 27.3149 23.221 27.1191C23.0303 26.9233 22.8256 26.7411 22.6349 26.5458C22.4086 26.3138 22.4208 26.0109 22.6547 25.8302C22.8463 25.6818 23.1013 25.7109 23.3084 25.9095C23.7066 26.2913 24.1029 26.6754 24.5087 27.067C26.1697 25.2512 27.0563 23.1457 27.1305 20.6832C26.5318 20.6832 25.9701 20.6861 25.408 20.6823C25.0995 20.68 24.9036 20.4954 24.9022 20.2203C24.9008 19.9395 25.0915 19.7577 25.4 19.753C25.6419 19.7493 25.8842 19.7521 26.1265 19.7521C26.4515 19.7521 26.7764 19.7521 27.1122 19.7521C26.9145 17.5184 26.0805 15.603 24.5547 13.9238C24.4899 14.0131 24.4505 14.0821 24.3974 14.138C24.0795 14.4714 23.7634 14.8071 23.4361 15.1316C23.151 15.4142 22.7429 15.3231 22.6316 14.9616C22.5715 14.7667 22.65 14.6122 22.7829 14.4751C23.1571 14.0882 23.5305 13.6999 23.9165 13.2998C22.2273 11.8211 20.2747 11.021 18.0154 10.8796C18.0154 11.3896 18.0168 11.8718 18.0149 12.3541C18.0135 12.6701 17.8425 12.8678 17.5706 12.8753C17.2898 12.8828 17.094 12.6809 17.0883 12.3597C17.0818 11.977 17.0865 11.5943 17.0865 11.2116C17.0865 11.1064 17.0865 11.0013 17.0865 10.898C15.0995 10.8163 11.8099 12.2874 10.7091 13.76C10.766 13.7999 10.8369 13.8365 10.8923 13.8896C11.2699 14.2521 11.6469 14.6146 12.0184 14.9837C12.2448 15.2086 12.2537 15.4664 12.0569 15.6664C11.863 15.8641 11.6037 15.8589 11.3708 15.6453C11.2154 15.503 11.0679 15.3518 10.9167 15.2048C10.6486 14.9451 10.3804 14.6855 10.0883 14.4033H10.0902ZM30.0459 19.7394C29.9538 13.1904 24.3011 7.98899 18.0093 7.96129V9.933C23.3055 10.1678 27.7086 14.4324 28.0683 19.7394H30.0454H30.0459Z" fill="#004870"/>
<path d="M18.0176 15.3442C18.0176 15.8363 18.0199 16.3284 18.0166 16.8205C18.0148 17.1215 17.8433 17.3089 17.5747 17.3159C17.3061 17.323 17.0967 17.1413 17.0938 16.852C17.0844 15.8523 17.0849 14.8521 17.0934 13.8524C17.0957 13.566 17.308 13.3725 17.5672 13.3763C17.8424 13.3805 18.0157 13.5754 18.0176 13.8914C18.0199 14.3755 18.018 14.8601 18.018 15.3442H18.0176Z" fill="#004870"/>
<path d="M22.8084 19.752C23.1206 19.752 23.4334 19.7497 23.7457 19.753C24.0599 19.7563 24.251 19.9309 24.2533 20.2108C24.2557 20.4897 24.0636 20.6799 23.7574 20.6822C23.1169 20.6869 22.4763 20.6869 21.8358 20.6822C21.5305 20.6799 21.3371 20.4888 21.3399 20.2108C21.3422 19.9328 21.5352 19.7563 21.8475 19.753C22.1678 19.7497 22.4881 19.752 22.8084 19.752Z" fill="#004870"/>
</g>
<defs>
<clipPath id="clip0_58_2">
<rect width="24" height="24" fill="white" transform="translate(7 7)"/>
</clipPath>
</defs>
</svg>
