<svg width="37" height="37" viewBox="0 0 37 37" fill="none" xmlns="http://www.w3.org/2000/svg">
<path d="M37 37H0V0H18.5204V1.63173H1.63173V35.3683H35.3683V18.5204H37V37Z" fill="#004870"/>
<path d="M36.9998 13.8699H35.368V1.63173H23.1299V0H36.9998V13.8699Z" fill="#EB6332"/>
<g clip-path="url(#clip0_58_3)">
<path d="M25.6348 28H12.3659C12.322 27.9841 12.2792 27.961 12.2339 27.9538C10.4075 27.6782 9.00325 26.0593 9.00181 24.2164C8.9994 20.588 8.9994 16.9591 9.00181 13.3307C9.00277 11.5822 10.2557 9.98793 11.9693 9.65067C12.6126 9.52395 13.2897 9.56972 13.9513 9.53937C14.0916 9.53311 14.2328 9.53841 14.3855 9.53841C14.3855 9.26523 14.3841 9.02577 14.3855 8.78632C14.3894 8.33294 14.7093 8.00291 15.145 8.00002C15.5941 7.99713 15.9194 8.32716 15.9228 8.79306C15.9247 9.03782 15.9228 9.28257 15.9228 9.51913H22.077C22.077 9.25944 22.0751 9.01951 22.077 8.77957C22.0823 8.32861 22.4061 8.0005 22.8442 8.00002C23.2822 7.99954 23.6099 8.32812 23.6147 8.7762C23.6176 9.0224 23.6152 9.2686 23.6152 9.53841C24.1482 9.53841 24.6585 9.53792 25.1684 9.53841C26.8983 9.54082 28.3941 10.6798 28.8601 12.3512C28.9112 12.5338 28.9536 12.7192 28.9999 12.9033V24.6346C28.9849 24.6708 28.9628 24.7055 28.956 24.7426C28.718 26.1143 27.9653 27.0971 26.7017 27.6709C26.3654 27.8237 25.9914 27.8926 25.6343 28H25.6348ZM10.5386 15.7011V15.9174C10.5386 18.6252 10.5366 21.3334 10.5395 24.0411C10.541 25.4629 11.537 26.4607 12.9577 26.4612C16.9873 26.4636 21.0168 26.4631 25.0464 26.4587C25.2681 26.4587 25.496 26.4351 25.7105 26.3802C26.7865 26.1037 27.4593 25.2114 27.4607 24.0613C27.4641 21.3454 27.4622 18.6295 27.4612 15.9136C27.4612 15.8447 27.4525 15.7753 27.4477 15.7011H10.5386ZM10.5434 14.1377H27.4564C27.4564 13.8418 27.4713 13.5614 27.454 13.283C27.3879 12.2254 26.6752 11.3235 25.6623 11.1524C25.0002 11.0407 24.313 11.0792 23.6152 11.0493C23.6152 11.3095 23.6152 11.5162 23.6152 11.7229C23.6152 12.2741 23.3164 12.6171 22.8398 12.6152C22.3758 12.6133 22.078 12.2688 22.0775 11.7345C22.0775 11.521 22.0775 11.3076 22.0775 11.0941H15.9232C15.9232 11.3505 15.9252 11.5899 15.9232 11.8294C15.9194 12.2808 15.5965 12.6128 15.1623 12.6152C14.7166 12.6176 14.3894 12.2837 14.386 11.8202C14.3846 11.5755 14.386 11.3307 14.386 11.0821C13.8135 11.0821 13.2757 11.0527 12.7418 11.0884C11.8006 11.152 11.1202 11.6251 10.7289 12.4918C10.4933 13.0141 10.5371 13.5691 10.5443 14.1372L10.5434 14.1377Z" fill="#004870"/>
<path d="M23.6095 24.9226C23.105 24.9226 22.6009 24.9246 22.0964 24.9222C21.6328 24.9198 21.3104 24.6008 21.3094 24.1397C21.307 23.1231 21.307 22.106 21.3094 21.0894C21.3104 20.6264 21.6304 20.3094 22.0964 20.3084C23.1131 20.306 24.1299 20.306 25.1467 20.3084C25.5944 20.3099 25.9207 20.6327 25.9221 21.0779C25.9255 22.1027 25.9255 23.1275 25.9221 24.1522C25.9207 24.5994 25.5963 24.9188 25.1467 24.9217C24.6345 24.9251 24.1218 24.9226 23.6095 24.9226ZM24.3694 23.3732V21.8642H22.8582V23.3732H24.3694Z" fill="#004870"/>
</g>
<defs>
<clipPath id="clip0_58_3">
<rect width="20" height="20" fill="white" transform="translate(9 8)"/>
</clipPath>
</defs>
</svg>
