<svg width="37" height="37" viewBox="0 0 37 37" fill="none" xmlns="http://www.w3.org/2000/svg">
<path d="M37 37H0V0H18.5204V1.63173H1.63173V35.3683H35.3683V18.5204H37V37Z" fill="#004870"/>
<path d="M36.9998 13.8699H35.368V1.63173H23.1299V0H36.9998V13.8699Z" fill="#EB6332"/>
<g clip-path="url(#clip0_58_4)">
<path d="M17.2909 28.9997C16.5651 28.8462 15.8224 28.746 15.1144 28.5308C10.5689 27.1492 7.66088 22.8697 8.03177 18.1484C8.38294 13.6695 11.8102 9.93011 16.2768 9.15134C21.8214 8.18443 27.0562 11.9388 27.8862 17.4773C28.7116 22.9867 24.951 28.059 19.429 28.8827C19.1839 28.9192 18.9407 28.9604 18.6956 28.9997H17.29H17.2909ZM10.0374 18.9796C10.0008 23.3143 13.5473 26.9077 17.9013 26.9479C22.3398 26.9891 25.966 23.4556 26.0008 19.0563C26.0355 14.7104 22.4853 11.058 18.1895 11.0187C13.6365 10.9775 10.075 14.4548 10.0374 18.9796Z" fill="#004870"/>
<path d="M17.0671 20.6302C17.2511 20.3924 17.376 20.1902 17.5384 20.0264C18.7366 18.819 19.9431 17.6218 21.1431 16.4162C21.4596 16.098 21.8117 15.8958 22.2718 16.0268C23.0154 16.2374 23.2661 17.1332 22.699 17.7117C21.0614 19.3834 19.4023 21.0336 17.7356 22.6763C17.2783 23.1265 16.7366 23.1153 16.2746 22.667C15.4455 21.8639 14.6305 21.0458 13.8248 20.2183C13.3845 19.7662 13.3929 19.1587 13.8042 18.7572C14.2145 18.3575 14.807 18.3669 15.268 18.8134C15.8389 19.3665 16.3882 19.9422 17.0661 20.6292L17.0671 20.6302Z" fill="#004870"/>
</g>
<defs>
<clipPath id="clip0_58_4">
<rect width="20" height="20" fill="white" transform="translate(8 9)"/>
</clipPath>
</defs>
</svg>
