<svg width="112" height="109" viewBox="0 0 112 109" fill="none" xmlns="http://www.w3.org/2000/svg">
<g clip-path="url(#clip0_152_1838)">
<path d="M29.8378 89.1612C29.6749 88.8586 29.4408 88.6265 29.1355 88.4673C28.8302 88.3068 28.4718 88.2266 28.0591 88.2266C27.346 88.2266 26.774 88.4624 26.3444 88.934C25.9148 89.4055 25.7 90.0351 25.7 90.8227C25.7 91.6625 25.9257 92.3176 26.377 92.7892C26.8283 93.2608 27.4485 93.4965 28.2389 93.4965C28.7807 93.4965 29.238 93.358 29.6121 93.0809C29.9862 92.8038 30.2589 92.4063 30.4303 91.8862H27.6332V90.2502H32.4273V92.314C32.2644 92.8682 31.9869 93.3823 31.5959 93.8587C31.2049 94.3352 30.709 94.7204 30.1081 95.0133C29.5059 95.3075 28.8278 95.4545 28.0712 95.4545C27.177 95.4545 26.3806 95.2576 25.6807 94.8639C24.9809 94.4701 24.4342 93.9231 24.0445 93.2219C23.6535 92.5206 23.458 91.7209 23.458 90.8203C23.458 89.9209 23.6535 89.1175 24.0445 88.4126C24.4354 87.7076 24.9784 87.1583 25.6747 86.7645C26.371 86.3707 27.165 86.1738 28.0591 86.1738C29.1415 86.1738 30.055 86.4376 30.7983 86.9663C31.5416 87.4937 32.0327 88.2254 32.2741 89.16H29.8378V89.1612Z" fill="white"/>
<path d="M35.8568 88.0574V89.9012H38.8083V91.6148H35.8568V93.6142H39.1945V95.3923H33.6522V86.2793H39.1945V88.0574H35.8568Z" fill="white"/>
<path d="M42.1195 95.1579C41.5958 94.9415 41.1771 94.6219 40.8633 94.1977C40.5496 93.7735 40.3843 93.2631 40.3674 92.6663H42.7132C42.747 93.0042 42.864 93.2619 43.0607 93.4381C43.2586 93.6155 43.5156 93.7043 43.8342 93.7043C44.1612 93.7043 44.4182 93.6289 44.6077 93.477C44.7971 93.3263 44.8912 93.116 44.8912 92.8474C44.8912 92.6226 44.8164 92.4366 44.6656 92.2895C44.5148 92.1425 44.3301 92.0209 44.1117 91.9261C43.8921 91.8313 43.5808 91.7232 43.1777 91.6016C42.5937 91.4193 42.1171 91.2382 41.7478 91.0559C41.3786 90.8736 41.06 90.6062 40.7945 90.2513C40.5279 89.8965 40.3951 89.4334 40.3951 88.8622C40.3951 88.0138 40.7004 87.3502 41.3098 86.8701C41.9192 86.3901 42.7144 86.1494 43.6942 86.1494C44.6909 86.1494 45.4946 86.3901 46.104 86.8701C46.7133 87.3502 47.0404 88.0187 47.0838 88.8755H44.6994C44.6825 88.5814 44.5751 88.3493 44.3772 88.1815C44.1793 88.0126 43.9259 87.9287 43.617 87.9287C43.3503 87.9287 43.1355 88.0004 42.9726 88.1426C42.8097 88.2848 42.7277 88.4915 42.7277 88.7588C42.7277 89.053 42.8652 89.2827 43.1403 89.4468C43.4155 89.6108 43.845 89.7883 44.4291 89.9791C45.0131 90.1784 45.4873 90.368 45.853 90.5503C46.2186 90.7326 46.5335 90.9964 46.8002 91.3415C47.0669 91.6879 47.1996 92.134 47.1996 92.6785C47.1996 93.1974 47.0681 93.669 46.8063 94.0932C46.5444 94.5174 46.1643 94.8552 45.6659 95.1056C45.1676 95.3572 44.5787 95.4824 43.9006 95.4824C43.2369 95.4824 42.6432 95.3742 42.1195 95.1579Z" fill="white"/>
<path d="M55.0588 86.2793V88.0574H52.6611V95.3911H50.4577V88.0574H48.06V86.2793H55.0588Z" fill="white"/>
<path d="M58.3711 86.2793V95.3923H56.1677V86.2793H58.3711Z" fill="white"/>
<path d="M61.9092 94.8854C61.2008 94.488 60.6373 93.9313 60.221 93.2179C59.8047 92.5044 59.5959 91.7011 59.5959 90.8102C59.5959 89.9193 59.8047 89.1184 60.221 88.4086C60.6373 87.6988 61.2008 87.1446 61.9092 86.7471C62.6187 86.3497 63.3982 86.1504 64.2489 86.1504C65.0997 86.1504 65.8792 86.3497 66.5875 86.7471C67.2958 87.1458 67.8545 87.6988 68.2624 88.4086C68.6702 89.1184 68.8742 89.9193 68.8742 90.8102C68.8742 91.7011 68.6678 92.5044 68.2551 93.2179C67.8425 93.9313 67.2838 94.488 66.5803 94.8854C65.8756 95.284 65.0984 95.4821 64.2477 95.4821C63.397 95.4821 62.6175 95.2828 61.9092 94.8854ZM65.9817 92.7305C66.4149 92.2456 66.6321 91.605 66.6321 90.809C66.6321 90.0044 66.4149 89.3614 65.9817 88.8814C65.5473 88.4013 64.9705 88.1606 64.2489 88.1606C63.5189 88.1606 62.9361 88.3989 62.5029 88.8741C62.0684 89.3505 61.8525 89.9947 61.8525 90.8078C61.8525 91.6123 62.0697 92.2553 62.5029 92.7354C62.9361 93.2154 63.5189 93.4561 64.2489 93.4561C64.9693 93.4573 65.5473 93.2154 65.9817 92.7305Z" fill="white"/>
<path d="M78.1922 95.3911H75.9888L72.3024 89.7699V95.3911H70.099V86.2793H72.3024L75.9888 91.926V86.2793H78.1922V95.3911Z" fill="white"/>
<path d="M85.4227 93.7811H82.0464L81.5046 95.3903H79.1974L82.4711 86.2773H85.0233L88.297 95.3903H85.9645L85.4227 93.7811ZM84.8556 92.0675L83.7345 88.7312L82.6268 92.0675H84.8556Z" fill="white"/>
<path d="M37.5509 47.8557C37.4773 47.8544 37.4061 47.8447 37.3313 47.8447C28.5659 47.8447 21.4597 55.0021 21.4597 63.8307C21.4597 72.6593 28.5659 79.8167 37.3313 79.8167C37.4049 79.8167 37.4773 79.807 37.5509 79.8058V47.8557Z" fill="white"/>
<path d="M54.4579 79.8158V66.6422C54.4579 65.8194 53.7954 65.1533 52.9797 65.1533H39.892V65.1971L54.4579 79.8158Z" fill="white"/>
<path d="M47.1839 62.4863C51.1952 62.4863 54.447 59.2111 54.447 55.1709C54.447 51.1307 51.1952 47.8555 47.1839 47.8555C43.1726 47.8555 39.9208 51.1307 39.9208 55.1709C39.9208 59.2111 43.1726 62.4863 47.1839 62.4863Z" fill="white"/>
<path d="M54.3384 10.3975L37.96 25.8791L21.5804 10.3975H21.5707V39.4635C21.5707 41.2379 22.9983 42.6757 24.76 42.6757H51.1587C52.9205 42.6757 54.348 41.2379 54.348 39.4635V10.3975H54.3384Z" fill="white"/>
<path d="M75.4192 42.3796C84.4674 42.3796 91.8024 34.9917 91.8024 25.8783C91.8024 16.7648 84.4674 9.37695 75.4192 9.37695C66.371 9.37695 59.036 16.7648 59.036 25.8783C59.036 34.9917 66.371 42.3796 75.4192 42.3796Z" fill="white"/>
<path d="M85.6097 48.1948V77.1514C85.6097 77.7141 84.8918 77.9439 84.5696 77.4844L63.4585 47.3538H63.426V80.3078H87.4125V48.1899C87.4125 47.7281 87.0409 47.3525 86.5811 47.3525H86.4448C85.9838 47.3538 85.6097 47.7305 85.6097 48.1948Z" fill="white"/>
</g>
<defs>
<clipPath id="clip0_152_1838">
<rect width="112" height="108.138" fill="white"/>
</clipPath>
</defs>
</svg>
