<svg width="22" height="22" viewBox="0 0 22 22" fill="none" xmlns="http://www.w3.org/2000/svg">
<path d="M4.41421 1.58579C3.63316 0.804738 2.36684 0.804738 1.58579 1.58579C0.804738 2.36684 0.804738 3.63316 1.58579 4.41421L4.41421 1.58579ZM20 22C21.1046 22 22 21.1046 22 20L22 2C22 0.89543 21.1046 -4.8737e-07 20 -4.8737e-07C18.8954 -4.8737e-07 18 0.89543 18 2L18 18L2 18C0.89543 18 -4.8737e-07 18.8954 -4.8737e-07 20C-4.8737e-07 21.1046 0.89543 22 2 22L20 22ZM1.58579 4.41421L18.5858 21.4142L21.4142 18.5858L4.41421 1.58579L1.58579 4.41421Z" fill="#FED500"/>
</svg>
