<svg width="60" height="55" viewBox="0 0 60 55" fill="none" xmlns="http://www.w3.org/2000/svg">
<g id="Capa_1" clip-path="url(#clip0_80_2443)">
<g id="Clip path group">
<mask id="mask0_80_2443" style="mask-type:luminance" maskUnits="userSpaceOnUse" x="5" y="23" width="50" height="32">
<g id="clip-path">
<path id="Vector" d="M54.0534 23.519H5.55307V54.1946H54.0534V23.519Z" fill="white"/>
</g>
</mask>
<g mask="url(#mask0_80_2443)">
<g id="Group">
<path id="Vector_2" d="M51.3363 54.4841H37.2309C36.6402 54.4841 36.0737 54.2494 35.6561 53.8318C35.2384 53.4141 35.0037 52.8476 35.0037 52.2569V36.9265C35.0018 35.6375 34.4888 34.4018 33.5773 33.4903C32.6658 32.5788 31.4301 32.0658 30.1411 32.0639H29.8961C28.607 32.0658 27.3713 32.5788 26.4598 33.4903C25.5483 34.4018 25.0354 35.6375 25.0334 36.9265V52.2421C25.0334 52.8327 24.7988 53.3992 24.3811 53.8169C23.9634 54.2346 23.3969 54.4692 22.8063 54.4692H8.70084C8.01959 54.4692 7.36624 54.1986 6.88452 53.7169C6.4028 53.2352 6.13217 52.5818 6.13217 51.9006V24.9815C6.13217 24.6369 6.26905 24.3065 6.51269 24.0628C6.75634 23.8192 7.08679 23.6823 7.43135 23.6823C7.77592 23.6823 8.10637 23.8192 8.35002 24.0628C8.59366 24.3065 8.73054 24.6369 8.73054 24.9815V51.8857H22.4648V36.9265C22.4666 34.9579 23.2449 33.0694 24.6307 31.6712C26.0165 30.2729 27.8979 29.4776 29.8664 29.4581H30.104C32.0841 29.4601 33.9826 30.2475 35.3828 31.6477C36.783 33.0479 37.5704 34.9464 37.5724 36.9265V51.8857H51.2992V25.0334C51.2857 24.8541 51.3093 24.6738 51.3686 24.504C51.428 24.3342 51.5217 24.1785 51.644 24.0466C51.7663 23.9147 51.9146 23.8095 52.0794 23.7375C52.2443 23.6656 52.4222 23.6284 52.6021 23.6284C52.782 23.6284 52.9599 23.6656 53.1248 23.7375C53.2896 23.8095 53.4379 23.9147 53.5602 24.0466C53.6825 24.1785 53.7762 24.3342 53.8356 24.504C53.8949 24.6738 53.9185 24.8541 53.905 25.0334V51.9154C53.905 52.5967 53.6344 53.25 53.1527 53.7317C52.6709 54.2134 52.0176 54.4841 51.3363 54.4841Z" fill="#876603"/>
</g>
</g>
</g>
<g id="Clip path group_2">
<mask id="mask1_80_2443" style="mask-type:luminance" maskUnits="userSpaceOnUse" x="0" y="0" width="60" height="25">
<g id="clip-path-2">
<path id="Vector_3" d="M60 0H0V24.5063H60V0Z" fill="white"/>
</g>
</mask>
<g mask="url(#mask1_80_2443)">
<g id="Group_2">
<path id="Vector_4" d="M58.4929 24.3876C58.2085 24.3865 57.9322 24.2927 57.706 24.1203L29.9777 3.0513L2.26427 24.1203C2.12839 24.231 1.97166 24.3131 1.80338 24.362C1.6351 24.4108 1.45873 24.4253 1.28474 24.4045C1.11075 24.3838 0.942712 24.3283 0.790614 24.2413C0.638516 24.1543 0.505468 24.0376 0.399384 23.8982C0.293301 23.7587 0.216349 23.5994 0.173106 23.4296C0.129864 23.2598 0.121215 23.083 0.147673 22.9098C0.174131 22.7366 0.235156 22.5705 0.327118 22.4213C0.41908 22.2722 0.540099 22.1431 0.682978 22.0417L29.1908 0.378696C29.4165 0.205318 29.6931 0.111328 29.9777 0.111328C30.2623 0.111328 30.5389 0.205318 30.7646 0.378696L59.2799 22.0491C59.4985 22.2131 59.6599 22.4418 59.741 22.7028C59.8221 22.9638 59.8189 23.2438 59.7317 23.5028C59.6445 23.7618 59.4779 23.9868 59.2555 24.1456C59.0331 24.3045 58.7662 24.3892 58.4929 24.3876Z" fill="#876603"/>
</g>
</g>
</g>
</g>
<defs>
<clipPath id="clip0_80_2443">
<rect width="60" height="54.484" fill="white"/>
</clipPath>
</defs>
</svg>
