<svg width="61" height="55" viewBox="0 0 61 55" fill="none" xmlns="http://www.w3.org/2000/svg">
<g id="Capa_1" clip-path="url(#clip0_80_2460)">
<g id="Clip path group">
<mask id="mask0_80_2460" style="mask-type:luminance" maskUnits="userSpaceOnUse" x="5" y="22" width="50" height="33">
<g id="clip-path">
<path id="Vector" d="M54.2434 22.8022H5.67267V54.2361H54.2434V22.8022Z" fill="white"/>
</g>
</mask>
<g mask="url(#mask0_80_2460)">
<g id="Group">
<path id="Vector_2" d="M51.4108 54.5185H37.2849C36.6934 54.5185 36.126 54.2835 35.7078 53.8653C35.2895 53.447 35.0545 52.8797 35.0545 52.2881V36.943C35.0545 35.6514 34.5414 34.4128 33.6282 33.4995C32.7149 32.5863 31.4763 32.0732 30.1848 32.0732H29.9469C28.6553 32.0732 27.4167 32.5863 26.5035 33.4995C25.5902 34.4128 25.0772 35.6514 25.0772 36.943V52.2733C25.0772 52.8648 24.8422 53.4321 24.4239 53.8504C24.0056 54.2687 23.4383 54.5037 22.8468 54.5037H8.72087C8.38305 54.5037 8.04855 54.4371 7.73645 54.3078C7.42435 54.1786 7.14077 53.9891 6.90191 53.7502C6.41949 53.2678 6.14847 52.6135 6.14847 51.9313V24.9731C6.17332 24.6441 6.32158 24.3366 6.56353 24.1122C6.80549 23.8879 7.12328 23.7632 7.45325 23.7632C7.78323 23.7632 8.10102 23.8879 8.34298 24.1122C8.58493 24.3366 8.73318 24.6441 8.75804 24.9731V51.909H22.4304V36.943C22.4324 34.9599 23.221 33.0587 24.6232 31.6565C26.0254 30.2543 27.9267 29.4656 29.9097 29.4637H30.1476C32.1306 29.4656 34.0319 30.2543 35.4341 31.6565C36.8363 33.0587 37.6249 34.9599 37.6269 36.943V51.909H51.3736V25.0252C51.3985 24.6961 51.5467 24.3886 51.7887 24.1643C52.0306 23.9399 52.3484 23.8152 52.6784 23.8152C53.0084 23.8152 53.3262 23.9399 53.5681 24.1643C53.8101 24.3886 53.9583 24.6961 53.9832 25.0252V51.9461C53.9832 52.6284 53.7122 53.2827 53.2297 53.7651C52.7473 54.2475 52.093 54.5185 51.4108 54.5185Z" fill="#797803"/>
</g>
</g>
</g>
<g id="Clip path group_2">
<mask id="mask1_80_2460" style="mask-type:luminance" maskUnits="userSpaceOnUse" x="0" y="0" width="61" height="25">
<g id="clip-path-2">
<path id="Vector_3" d="M60.1911 0H0V24.7798H60.1911V0Z" fill="white"/>
</g>
</mask>
<g mask="url(#mask1_80_2460)">
<g id="Group_2">
<path id="Vector_4" d="M58.5853 24.3784C58.2977 24.3806 58.0176 24.2864 57.7898 24.1107L30.0287 3.01111L2.26763 24.1107C1.9913 24.319 1.64374 24.4093 1.30098 24.3619C0.958229 24.3145 0.648191 24.1333 0.438702 23.8579C0.334445 23.7225 0.258051 23.5678 0.213931 23.4027C0.169811 23.2376 0.15884 23.0654 0.181652 22.896C0.204464 22.7267 0.260607 22.5635 0.346838 22.416C0.433069 22.2684 0.547679 22.1394 0.684047 22.0364L29.2332 0.334624C29.4609 0.161567 29.739 0.0678711 30.025 0.0678711C30.311 0.0678711 30.5891 0.161567 30.8168 0.334624L59.3734 22.0364C59.5879 22.203 59.7452 22.4321 59.8236 22.6921C59.902 22.952 59.8976 23.2299 59.811 23.4873C59.7244 23.7446 59.5599 23.9687 59.3403 24.1283C59.1207 24.288 58.8568 24.3754 58.5853 24.3784Z" fill="#797803"/>
</g>
</g>
</g>
<g id="Clip path group_3">
<mask id="mask2_80_2460" style="mask-type:luminance" maskUnits="userSpaceOnUse" x="25" y="10" width="10" height="16">
<g id="clip-path-3">
<path id="Vector_5" d="M34.3334 10.2075H25.6868V25.0769H34.3334V10.2075Z" fill="white"/>
</g>
</mask>
<g mask="url(#mask2_80_2460)">
<g id="Group_3">
<path id="Vector_6" d="M33.8055 10.3043C33.6993 10.2495 33.5833 10.2164 33.4641 10.2069C33.345 10.1975 33.2252 10.2119 33.1117 10.2492C32.9981 10.2866 32.8932 10.3462 32.803 10.4246C32.7128 10.503 32.6391 10.5985 32.5862 10.7057L25.8207 24.0138C25.7659 24.12 25.7328 24.2361 25.7233 24.3552C25.7139 24.4743 25.7283 24.5941 25.7656 24.7077C25.803 24.8212 25.8626 24.9261 25.941 25.0163C26.0194 25.1065 26.115 25.1802 26.2221 25.2331C26.3485 25.2982 26.4889 25.3314 26.6311 25.3297C26.7982 25.3306 26.9624 25.2852 27.1054 25.1986C27.2484 25.112 27.3647 24.9876 27.4414 24.839L34.1996 11.531C34.2548 11.4247 34.2884 11.3085 34.2985 11.1891C34.3085 11.0697 34.2948 10.9495 34.2582 10.8355C34.2216 10.7214 34.1627 10.6158 34.085 10.5246C34.0073 10.4334 33.9123 10.3585 33.8055 10.3043Z" fill="#797803"/>
</g>
</g>
</g>
<g id="Clip path group_4">
<mask id="mask3_80_2460" style="mask-type:luminance" maskUnits="userSpaceOnUse" x="22" y="10" width="8" height="9">
<g id="clip-path-4">
<path id="Vector_7" d="M29.4636 10.9067H22.0438V18.8395H29.4636V10.9067Z" fill="white"/>
</g>
</mask>
<g mask="url(#mask3_80_2460)">
<g id="Group_4">
<path id="Vector_8" d="M28.9507 14.6909C28.9507 14.0086 28.7483 13.3417 28.3693 12.7744C27.9902 12.2071 27.4514 11.7649 26.8211 11.5038C26.1908 11.2427 25.4971 11.1744 24.828 11.3075C24.1588 11.4406 23.5441 11.7692 23.0617 12.2516C22.5792 12.7341 22.2507 13.3487 22.1176 14.0179C21.9844 14.6871 22.0528 15.3807 22.3139 16.011C22.575 16.6414 23.0171 17.1802 23.5844 17.5592C24.1517 17.9383 24.8187 18.1406 25.501 18.1406C26.4153 18.1386 27.2916 17.7746 27.9381 17.128C28.5846 16.4815 28.9487 15.6052 28.9507 14.6909ZM25.501 16.3563C25.1768 16.3577 24.8596 16.2629 24.5895 16.0837C24.3194 15.9046 24.1086 15.6492 23.9838 15.35C23.8591 15.0508 23.8261 14.7214 23.889 14.4034C23.9519 14.0854 24.1078 13.7933 24.337 13.5641C24.5662 13.3349 24.8583 13.179 25.1763 13.1161C25.4942 13.0532 25.8237 13.0862 26.1229 13.211C26.4221 13.3357 26.6774 13.5465 26.8566 13.8166C27.0358 14.0867 27.1306 14.404 27.1292 14.7281C27.1272 15.1593 26.955 15.5723 26.6501 15.8772C26.3452 16.1821 25.9322 16.3543 25.501 16.3563Z" fill="#797803"/>
</g>
</g>
</g>
<g id="Clip path group_5">
<mask id="mask4_80_2460" style="mask-type:luminance" maskUnits="userSpaceOnUse" x="30" y="16" width="8" height="9">
<g id="clip-path-5">
<path id="Vector_9" d="M37.6567 16.8545H30.4525V24.7873H37.6567V16.8545Z" fill="white"/>
</g>
</mask>
<g mask="url(#mask4_80_2460)">
<g id="Group_5">
<path id="Vector_10" d="M34.5638 17.4048C33.8819 17.4063 33.2156 17.6098 32.6493 17.9898C32.083 18.3697 31.642 18.909 31.382 19.5395C31.1221 20.17 31.0548 20.8633 31.1888 21.532C31.3227 22.2007 31.6519 22.8147 32.1346 23.2964C32.6173 23.7781 33.232 24.1059 33.901 24.2384C34.57 24.3709 35.2632 24.3022 35.8931 24.0409C36.523 23.7795 37.0614 23.3374 37.4401 22.7702C37.8188 22.2031 38.021 21.5364 38.021 20.8545C38.019 19.9389 37.6539 19.0615 37.0058 18.4147C36.3576 17.768 35.4794 17.4048 34.5638 17.4048ZM34.5638 22.4827C34.24 22.4827 33.9235 22.3865 33.6544 22.2065C33.3852 22.0264 33.1756 21.7705 33.052 21.4712C32.9284 21.1719 32.8965 20.8427 32.9602 20.5252C33.0239 20.2077 33.1804 19.9163 33.4099 19.6878C33.6394 19.4594 33.9316 19.3042 34.2493 19.2419C34.5671 19.1797 34.8962 19.2131 35.1949 19.3381C35.4937 19.463 35.7486 19.6738 35.9274 19.9438C36.1063 20.2137 36.2009 20.5307 36.1995 20.8545C36.1975 21.287 36.0243 21.7011 35.7178 22.0062C35.4113 22.3114 34.9964 22.4827 34.5638 22.4827Z" fill="#797803"/>
</g>
</g>
</g>
</g>
<defs>
<clipPath id="clip0_80_2460">
<rect width="60.1911" height="54.5185" fill="white"/>
</clipPath>
</defs>
</svg>
