<svg width="58" height="47" viewBox="0 0 58 47" fill="none" xmlns="http://www.w3.org/2000/svg">
<g id="Capa_1" clip-path="url(#clip0_79_2429)">
<g id="Clip path group">
<mask id="mask0_79_2429" style="mask-type:luminance" maskUnits="userSpaceOnUse" x="0" y="0" width="58" height="42">
<g id="clip-path">
<path id="Vector" d="M57.7733 0H0V41.5456H57.7733V0Z" fill="white"/>
</g>
</mask>
<g mask="url(#mask0_79_2429)">
<g id="Group">
<path id="Vector_2" fill-rule="evenodd" clip-rule="evenodd" d="M2.58436e-05 4.15383C-0.00189925 3.60904 0.103744 3.06922 0.310896 2.56534C0.518048 2.06146 0.822634 1.60343 1.20719 1.21752C1.59174 0.831606 2.04869 0.525406 2.55184 0.316478C3.05498 0.107549 3.59443 3.08259e-06 4.13923 6.48382e-06H53.8681C54.412 -0.000956916 54.9507 0.105449 55.4533 0.313122C55.9559 0.520795 56.4126 0.82565 56.7971 1.2102C57.1817 1.59475 57.4866 2.05144 57.6942 2.55406C57.9019 3.05669 58.0083 3.59537 58.0073 4.13921V15.2039H55.243V4.15383C55.243 3.78726 55.0974 3.4357 54.8382 3.17649C54.579 2.91728 54.2274 2.77166 53.8608 2.77166H4.13191C3.76788 2.77551 3.42006 2.92283 3.16401 3.18163C2.90796 3.44042 2.76435 3.78978 2.76437 4.15383V37.2967C2.76436 37.662 2.90898 38.0125 3.16661 38.2715C3.42424 38.5305 3.77392 38.6769 4.13923 38.6789H23.475V41.4432H4.13923C3.04077 41.4413 1.98797 41.0035 1.21192 40.2261C0.435884 39.4487 2.41352e-05 38.3951 2.58436e-05 37.2967V4.15383Z" fill="#0B5438"/>
</g>
</g>
</g>
<path id="Vector_3" fill-rule="evenodd" clip-rule="evenodd" d="M1.38217 9.67529H56.6178V12.4323H1.38217V9.67529Z" fill="#0B5438"/>
<path id="Vector_4" fill-rule="evenodd" clip-rule="evenodd" d="M8.28574 29.0107H22.0928V31.7751H8.28574V29.0107Z" fill="#0B5438"/>
<g id="Clip path group_2">
<mask id="mask1_79_2429" style="mask-type:luminance" maskUnits="userSpaceOnUse" x="26" y="16" width="32" height="31">
<g id="clip-path-2">
<path id="Vector_5" d="M57.7733 16.1914H26.6489V46.8039H57.7733V16.1914Z" fill="white"/>
</g>
</mask>
<g mask="url(#mask1_79_2429)">
<g id="Group_2">
<path id="Vector_6" fill-rule="evenodd" clip-rule="evenodd" d="M42.8107 19.3435C40.3519 19.3435 37.9482 20.0726 35.9038 21.4387C33.8593 22.8047 32.2658 24.7464 31.3249 27.0181C30.3839 29.2898 30.1377 31.7895 30.6174 34.2011C31.0971 36.6127 32.2812 38.8279 34.0198 40.5666C35.7585 42.3053 37.9737 43.4893 40.3853 43.969C42.797 44.4487 45.2967 44.2025 47.5684 43.2616C49.84 42.3206 51.7817 40.7271 53.1478 38.6827C54.5138 36.6382 55.243 34.2346 55.243 31.7757C55.243 28.4785 53.9332 25.3163 51.6017 22.9848C49.2702 20.6533 46.108 19.3435 42.8107 19.3435ZM27.6215 31.7757C27.6215 28.7715 28.5123 25.8349 30.1813 23.337C31.8504 20.8391 34.2226 18.8923 36.9981 17.7426C39.7735 16.593 42.8276 16.2922 45.774 16.8783C48.7205 17.4644 51.4269 18.911 53.5512 21.0353C55.6754 23.1595 57.1221 25.866 57.7082 28.8124C58.2942 31.7588 57.9934 34.8129 56.8438 37.5884C55.6942 40.3638 53.7473 42.7361 51.2494 44.4051C48.7516 46.0741 45.8149 46.9649 42.8107 46.9649C38.7823 46.9649 34.9189 45.3647 32.0703 42.5161C29.2218 39.6676 27.6215 35.8041 27.6215 31.7757Z" fill="#0B5438"/>
</g>
</g>
</g>
<path id="Vector_7" fill-rule="evenodd" clip-rule="evenodd" d="M41.8162 34.6569L47.9006 26.1372L50.1458 27.7461L43.2422 37.414C43.1355 37.5622 43.0004 37.6877 42.8447 37.7831C42.689 37.8785 42.5159 37.942 42.3354 37.9698C42.1528 37.9984 41.9664 37.9905 41.7869 37.9466C41.6073 37.9027 41.4383 37.8235 41.2896 37.7138L35.7682 33.5673L37.421 31.3734L41.8162 34.6569Z" fill="#0B5438"/>
</g>
<defs>
<clipPath id="clip0_79_2429">
<rect width="58" height="46.9646" fill="white"/>
</clipPath>
</defs>
</svg>
