<svg width="1355" height="261" viewBox="0 0 1355 261" fill="none" xmlns="http://www.w3.org/2000/svg">
<path d="M1412.02 178.804L1377.72 172.087C1343.42 164.862 1275.02 152.189 1206.01 124.674C1137.71 97.6662 1069.01 57.0853 1001 30.0776C932.001 2.56261 862.999 -10.1104 795.001 9.81786C726.304 30.5074 658.01 83.7984 589.011 97.7647C520.613 111.731 452.01 83.8353 383.007 63.9316C314.905 43.2667 246.004 30.5936 178.003 23.3751C109.102 16.6642 41.0021 16.6764 6.00214 16.6827L-27.9979 16.6888L-27.9707 260.249L6.32935 260.242C40.6294 260.236 109.029 260.224 178.029 260.212C246.329 260.199 315.029 260.187 383.029 260.175C452.029 260.163 521.029 260.15 589.029 260.138C657.729 260.126 726.029 260.113 795.029 260.101C863.429 260.089 932.029 260.076 1001.03 260.064C1069.13 260.052 1138.03 260.039 1206.03 260.027C1274.93 260.015 1343.03 260.003 1378.03 259.996L1412.03 259.99L1412.02 178.804Z" fill="#004870"/>
</svg>
