<svg width="418" height="81" viewBox="0 0 418 81" fill="none" xmlns="http://www.w3.org/2000/svg">
<path d="M752.22 54.9864L733.154 52.9223C714.087 50.7021 676.066 46.8079 637.711 38.3495C599.745 30.047 561.556 17.5705 523.756 9.26806C485.401 0.809667 447.046 -3.0845 409.248 3.04693C371.061 9.4125 333.098 25.8037 294.744 30.1018C256.724 34.3997 218.591 25.8243 180.236 19.7065C142.381 13.3546 104.082 9.46041 66.283 7.2436C27.984 5.18291 -9.87017 5.1897 -29.3252 5.19319L-48.2245 5.19659L-48.2161 80.0968L-29.1501 80.0933C-10.0841 80.0899 27.9367 80.0831 66.2911 80.0762C104.256 80.0694 142.444 80.0625 180.242 80.0558C218.597 80.0489 256.951 80.042 294.75 80.0352C332.937 80.0284 370.902 80.0216 409.257 80.0147C447.278 80.0078 485.41 80.001 523.764 79.9941C561.618 79.9873 599.917 79.9805 637.715 79.9737C676.014 79.9668 713.868 79.96 733.323 79.9565L752.223 79.9531L752.22 54.9864Z" fill="#004870"/>
</svg>
