<svg width="418" height="58" viewBox="0 0 418 58" fill="none" xmlns="http://www.w3.org/2000/svg">
<g clip-path="url(#clip0_429_6)">
<path d="M-183 34.7995L-163.5 33.8329C-144 32.8662 -105 30.9329 -66 26.0995C-27 21.2662 12 13.5329 51 17.3995C90 21.2662 129 36.7329 168 42.5329C207 48.3329 246 44.4662 285 40.5995C324 36.7329 363 32.8662 402 28.0329C441 23.1995 480 17.3995 519 20.2995C558 23.1995 597 34.7995 636 39.6329C675 44.4662 714 42.5329 753 34.7995C792 27.0662 831 13.5329 870 10.6329C909 7.73288 948 15.4662 987 16.4329C1026 17.3995 1065 11.5995 1104 8.69954C1143 5.79955 1182 5.79955 1221 13.5329C1260 21.2662 1299 36.7329 1338 36.7329C1377 36.7329 1416 21.2662 1455 14.4995C1494 7.73288 1533 9.66621 1572 12.5662C1611 15.4662 1650 19.3329 1689 24.1662C1728 28.9995 1767 34.7995 1806 38.6662C1845 42.5329 1884 44.4662 1923 44.4662C1962 44.4662 2001 42.5329 2040 36.7329C2079 30.9329 2118 21.2662 2157 16.4329C2196 11.5995 2235 11.5995 2274 10.6329C2313 9.66621 2352 7.73288 2391 10.6329C2430 13.5329 2469 21.2662 2508 22.2329C2547 23.1995 2586 17.3995 2605.5 14.4995L2625 11.5995V57.9995H2605.5C2586 57.9995 2547 57.9995 2508 57.9995C2469 57.9995 2430 57.9995 2391 57.9995C2352 57.9995 2313 57.9995 2274 57.9995C2235 57.9995 2196 57.9995 2157 57.9995C2118 57.9995 2079 57.9995 2040 57.9995C2001 57.9995 1962 57.9995 1923 57.9995C1884 57.9995 1845 57.9995 1806 57.9995C1767 57.9995 1728 57.9995 1689 57.9995C1650 57.9995 1611 57.9995 1572 57.9995C1533 57.9995 1494 57.9995 1455 57.9995C1416 57.9995 1377 57.9995 1338 57.9995C1299 57.9995 1260 57.9995 1221 57.9995C1182 57.9995 1143 57.9995 1104 57.9995C1065 57.9995 1026 57.9995 987 57.9995C948 57.9995 909 57.9995 870 57.9995C831 57.9995 792 57.9995 753 57.9995C714 57.9995 675 57.9995 636 57.9995C597 57.9995 558 57.9995 519 57.9995C480 57.9995 441 57.9995 402 57.9995C363 57.9995 324 57.9995 285 57.9995C246 57.9995 207 57.9995 168 57.9995C129 57.9995 90 57.9995 51 57.9995C12 57.9995 -27 57.9995 -66 57.9995C-105 57.9995 -144 57.9995 -163.5 57.9995H-183V34.7995Z" fill="url(#paint0_linear_429_6)"/>
</g>
<defs>
<linearGradient id="paint0_linear_429_6" x1="-183" y1="57.9995" x2="-183" y2="6.91504" gradientUnits="userSpaceOnUse">
<stop offset="0.9999" stop-color="#004870"/>
<stop offset="1" stop-color="#FFB30B"/>
</linearGradient>
<clipPath id="clip0_429_6">
<rect width="702" height="58" fill="white" transform="translate(-183)"/>
</clipPath>
</defs>
</svg>
