<svg width="1355" height="106" viewBox="0 0 1355 106" fill="none" xmlns="http://www.w3.org/2000/svg">
<path d="M-60 57.9997L-20 55.9997C20 53.9997 100 49.9997 180 39.9997C260 29.9997 340 13.9997 420 21.9997C500 29.9997 580 61.9997 660 73.9997C740 85.9997 820 77.9997 900 69.9997C980 61.9997 1060 53.9997 1140 43.9997C1220 33.9997 1300 21.9997 1380 27.9997C1460 33.9997 1540 57.9997 1620 67.9997C1700 77.9997 1780 73.9997 1860 57.9997C1940 41.9997 2020 13.9997 2100 7.9997C2180 1.9997 2260 17.9997 2340 19.9997C2420 21.9997 2500 9.9997 2580 3.9997C2660 -2.0003 2740 -2.0003 2820 13.9997C2900 29.9997 2980 61.9997 3060 61.9997C3140 61.9997 3220 29.9997 3300 15.9997C3380 1.9997 3460 5.9997 3540 11.9997C3620 17.9997 3700 25.9997 3780 35.9997C3860 45.9997 3940 57.9997 4020 65.9997C4100 73.9997 4180 77.9997 4260 77.9997C4340 77.9997 4420 73.9997 4500 61.9997C4580 49.9997 4660 29.9997 4740 19.9997C4820 9.9997 4900 9.9997 4980 7.9997C5060 5.9997 5140 1.9997 5220 7.9997C5300 13.9997 5380 29.9997 5460 31.9997C5540 33.9997 5620 21.9997 5660 15.9997L5700 9.9997V106H5660C5620 106 5540 106 5460 106C5380 106 5300 106 5220 106C5140 106 5060 106 4980 106C4900 106 4820 106 4740 106C4660 106 4580 106 4500 106C4420 106 4340 106 4260 106C4180 106 4100 106 4020 106C3940 106 3860 106 3780 106C3700 106 3620 106 3540 106C3460 106 3380 106 3300 106C3220 106 3140 106 3060 106C2980 106 2900 106 2820 106C2740 106 2660 106 2580 106C2500 106 2420 106 2340 106C2260 106 2180 106 2100 106C2020 106 1940 106 1860 106C1780 106 1700 106 1620 106C1540 106 1460 106 1380 106C1300 106 1220 106 1140 106C1060 106 980 106 900 106C820 106 740 106 660 106C580 106 500 106 420 106C340 106 260 106 180 106C100 106 20 106 -20 106H-60V57.9997Z" fill="url(#paint0_linear_384_7)"/>
<defs>
<linearGradient id="paint0_linear_384_7" x1="-60" y1="106" x2="-60" y2="0.307617" gradientUnits="userSpaceOnUse">
<stop offset="0.9999" stop-color="#004870"/>
<stop offset="1" stop-color="#FFB30B"/>
</linearGradient>
</defs>
</svg>
