<svg width="54" height="44" viewBox="0 0 54 44" fill="none" xmlns="http://www.w3.org/2000/svg">
<g id="Capa_1" clip-path="url(#clip0_80_2486)">
<g id="Clip path group">
<mask id="mask0_80_2486" style="mask-type:luminance" maskUnits="userSpaceOnUse" x="0" y="0" width="54" height="44">
<g id="clip-path">
<path id="Vector" d="M54 0.0424805H0V43.9999H54V0.0424805Z" fill="white"/>
</g>
</mask>
<g mask="url(#mask0_80_2486)">
<g id="Group">
<path id="Vector_2" d="M48.5229 3.41035H44.4273V1.81512C44.4426 1.5677 44.4076 1.31974 44.3245 1.08651C44.2414 0.853284 44.1119 0.639744 43.944 0.459059C43.7761 0.278373 43.5734 0.134373 43.3483 0.0359376C43.1233 -0.0624978 42.8807 -0.113281 42.6355 -0.113281C42.3902 -0.113281 42.1476 -0.0624978 41.9226 0.0359376C41.6975 0.134373 41.4948 0.278373 41.3269 0.459059C41.159 0.639744 41.0295 0.853284 40.9464 1.08651C40.8633 1.31974 40.8283 1.5677 40.8436 1.81512V3.41035H34.006V1.81512C34.006 1.33563 33.8176 0.875774 33.4822 0.536722C33.1468 0.197669 32.692 0.00719188 32.2177 0.00719188C31.7434 0.00719188 31.2885 0.197669 30.9531 0.536722C30.6178 0.875774 30.4294 1.33563 30.4294 1.81512V3.41035H23.5917V1.81512C23.607 1.5677 23.572 1.31974 23.4889 1.08651C23.4058 0.853284 23.2763 0.639744 23.1084 0.459059C22.9405 0.278373 22.7378 0.134373 22.5128 0.0359376C22.2877 -0.0624978 22.0451 -0.113281 21.7999 -0.113281C21.5547 -0.113281 21.3121 -0.0624978 21.087 0.0359376C20.8619 0.134373 20.6592 0.278373 20.4913 0.459059C20.3235 0.639744 20.194 0.853284 20.1108 1.08651C20.0277 1.31974 19.9927 1.5677 20.0081 1.81512V3.41035H13.1704V1.81512C13.1857 1.5677 13.1507 1.31974 13.0676 1.08651C12.9845 0.853284 12.855 0.639744 12.6871 0.459059C12.5192 0.278373 12.3165 0.134373 12.0915 0.0359376C11.8664 -0.0624978 11.6238 -0.113281 11.3786 -0.113281C11.1334 -0.113281 10.8908 -0.0624978 10.6657 0.0359376C10.4406 0.134373 10.2379 0.278373 10.07 0.459059C9.90215 0.639744 9.77266 0.853284 9.68954 1.08651C9.60642 1.31974 9.57144 1.5677 9.58676 1.81512V3.41035H5.49117C4.06515 3.41223 2.69807 3.98576 1.68972 5.00517C0.681375 6.02457 0.114069 7.40665 0.112213 8.84831V38.2856C0.114069 39.7273 0.681375 41.1094 1.68972 42.1288C2.69807 43.1482 4.06515 43.7217 5.49117 43.7236H48.5229C49.9482 43.7217 51.3146 43.148 52.3218 42.1284C53.3291 41.1087 53.8948 39.7266 53.8948 38.2856V8.84831C53.8948 7.4073 53.3291 6.02521 52.3218 5.0056C51.3146 3.98598 49.9482 3.41223 48.5229 3.41035ZM5.49117 7.0333H9.58676V8.63562C9.61529 9.09646 9.81649 9.52898 10.1494 9.84512C10.4823 10.1613 10.9218 10.3373 11.3786 10.3373C11.8353 10.3373 12.2749 10.1613 12.6078 9.84512C12.9407 9.52898 13.1419 9.09646 13.1704 8.63562V7.0333H20.0081V8.63562C20.0366 9.09646 20.2378 9.52898 20.5707 9.84512C20.9036 10.1613 21.3431 10.3373 21.7999 10.3373C22.2566 10.3373 22.6962 10.1613 23.0291 9.84512C23.362 9.52898 23.5632 9.09646 23.5917 8.63562V7.0333H30.4294V8.63562C30.4294 9.11511 30.6178 9.57496 30.9531 9.91401C31.2885 10.2531 31.7434 10.4435 32.2177 10.4435C32.692 10.4435 33.1468 10.2531 33.4822 9.91401C33.8176 9.57496 34.006 9.11511 34.006 8.63562V7.0333H40.8436V8.63562C40.8722 9.09646 41.0734 9.52898 41.4063 9.84512C41.7392 10.1613 42.1787 10.3373 42.6355 10.3373C43.0922 10.3373 43.5318 10.1613 43.8647 9.84512C44.1976 9.52898 44.3987 9.09646 44.4273 8.63562V7.0333H48.5229C48.9978 7.03517 49.4526 7.22722 49.7878 7.5674C50.123 7.90758 50.3112 8.36817 50.3112 8.84831V14.1303H3.70286V8.84831C3.70286 8.36817 3.89105 7.90758 4.22622 7.5674C4.56139 7.22722 5.01624 7.03517 5.49117 7.0333ZM48.5229 40.0723H5.49117C5.02106 40.0705 4.5704 39.8823 4.23602 39.5483C3.90163 39.2142 3.71021 38.7609 3.70286 38.2856V17.7249H50.3112V38.2856C50.3038 38.7609 50.1124 39.2142 49.778 39.5483C49.4436 39.8823 48.993 40.0705 48.5229 40.0723Z" fill="#875274"/>
</g>
</g>
</g>
</g>
<defs>
<clipPath id="clip0_80_2486">
<rect width="54" height="44" fill="white"/>
</clipPath>
</defs>
</svg>
