<svg width="47" height="55" viewBox="0 0 47 55" fill="none" xmlns="http://www.w3.org/2000/svg">
<g id="Capa_1" clip-path="url(#clip0_80_2492)">
<g id="Clip path group">
<mask id="mask0_80_2492" style="mask-type:luminance" maskUnits="userSpaceOnUse" x="0" y="4" width="41" height="51">
<g id="clip-path">
<path id="Vector" d="M40.7377 4.07617H0V55.0001H40.7377V4.07617Z" fill="white"/>
</g>
</mask>
<g mask="url(#mask0_80_2492)">
<g id="Group">
<path id="Vector_2" d="M39.2157 51.8281H2.93835V6.10281C2.94236 5.9123 2.9083 5.72291 2.83816 5.54573C2.76802 5.36856 2.66321 5.20718 2.52988 5.07104C2.39655 4.9349 2.23738 4.82676 2.06171 4.75294C1.88604 4.67912 1.6974 4.64112 1.50684 4.64116C1.31005 4.63074 1.11322 4.66107 0.928692 4.73024C0.74416 4.79941 0.575898 4.90593 0.434443 5.04314C0.292988 5.18036 0.181387 5.3453 0.10663 5.52764C0.031873 5.70998 -0.00442993 5.90579 -5.33267e-06 6.10281V53.4028C-0.00442993 53.5998 0.031873 53.7956 0.10663 53.978C0.181387 54.1603 0.292988 54.3253 0.434443 54.4625C0.575898 54.5997 0.74416 54.7062 0.928692 54.7754C1.11322 54.8445 1.31005 54.8749 1.50684 54.8644H39.2534C39.4502 54.8749 39.647 54.8445 39.8316 54.7754C40.0161 54.7062 40.1844 54.5997 40.3258 54.4625C40.4673 54.3253 40.5789 54.1603 40.6536 53.978C40.7284 53.7956 40.7647 53.5998 40.7603 53.4028C40.7696 53.1961 40.7364 52.9896 40.6625 52.7963C40.5885 52.6031 40.4756 52.4271 40.3307 52.2793C40.1858 52.1316 40.012 52.0153 39.8202 51.9377C39.6284 51.86 39.4226 51.8228 39.2157 51.8281Z" fill="#03456B"/>
</g>
</g>
</g>
<g id="Clip path group_2">
<mask id="mask1_80_2492" style="mask-type:luminance" maskUnits="userSpaceOnUse" x="5" y="0" width="42" height="50">
<g id="clip-path-2">
<path id="Vector_3" d="M46.7123 0H5.57535V49.2815H46.7123V0Z" fill="white"/>
</g>
</mask>
<g mask="url(#mask1_80_2492)">
<g id="Group_2">
<path id="Vector_4" d="M46.4562 11.7684V11.6629C46.4167 11.4271 46.3063 11.209 46.1397 11.0375C46.1397 11.0096 46.1286 10.9827 46.1088 10.963C46.089 10.9432 46.0622 10.9321 46.0342 10.9321L35.5466 0.444393L35.4109 0.338914C35.2377 0.233434 35.0192 -0.000127403 34.8157 -0.000127403H7.33834C7.14132 -0.004552 6.94551 0.031751 6.76317 0.106508C6.58083 0.181265 6.41589 0.292866 6.27868 0.434321C6.14147 0.575776 6.03494 0.744038 5.96577 0.92857C5.8966 1.1131 5.86628 1.30993 5.8767 1.50672V47.541C5.86628 47.7378 5.8966 47.9346 5.96577 48.1191C6.03494 48.3037 6.14147 48.4719 6.27868 48.6134C6.41589 48.7548 6.58083 48.8664 6.76317 48.9412C6.94551 49.0159 7.14132 49.0522 7.33834 49.0478H44.8815C45.0819 49.0575 45.2822 49.0252 45.4694 48.9529C45.6566 48.8806 45.8266 48.7699 45.9685 48.628C46.1104 48.4861 46.2211 48.3161 46.2934 48.1289C46.3657 47.9417 46.398 47.7414 46.3883 47.541V11.9793C46.4562 11.8738 46.4562 11.8738 46.4562 11.7684ZM41.1822 10.4047H35.863V5.05535L38.4849 7.78275L41.1822 10.4047ZM43.4123 45.9588H8.913V2.96083H32.9246V12.0019C32.9153 12.1991 32.9466 12.3961 33.0166 12.5806C33.0867 12.7652 33.1939 12.9333 33.3317 13.0747C33.4695 13.216 33.6349 13.3275 33.8176 13.4022C34.0004 13.4768 34.1965 13.5131 34.3938 13.5088H43.4349L43.4123 45.9588Z" fill="#03456B"/>
</g>
</g>
</g>
<path id="Vector_5" d="M13.8404 20.4705C13.8352 20.6648 13.8697 20.8582 13.9417 21.0388C14.0137 21.2194 14.1217 21.3834 14.2592 21.5209C14.3967 21.6584 14.5607 21.7664 14.7413 21.8384C14.9219 21.9104 15.1152 21.9448 15.3096 21.9397H36.9178C37.2507 21.8638 37.548 21.6771 37.7609 21.4102C37.9739 21.1433 38.0898 20.8119 38.0898 20.4705C38.0898 20.129 37.9739 19.7977 37.7609 19.5308C37.548 19.2639 37.2507 19.0772 36.9178 19.0013H15.3096C15.1155 18.9972 14.9226 19.0324 14.7425 19.1048C14.5624 19.1771 14.3988 19.2852 14.2616 19.4225C14.1243 19.5597 14.0163 19.7233 13.9439 19.9034C13.8715 20.0835 13.8363 20.2764 13.8404 20.4705Z" fill="#03456B"/>
<path id="Vector_6" d="M36.9178 28.2305H15.3096C15.0889 28.1803 14.8597 28.1803 14.6391 28.2307C14.4184 28.2811 14.212 28.3806 14.035 28.5218C13.8581 28.6629 13.7153 28.8421 13.6171 29.046C13.5189 29.25 13.4679 29.4734 13.4679 29.6997C13.4679 29.9261 13.5189 30.1495 13.6171 30.3534C13.7153 30.5573 13.8581 30.7365 14.035 30.8777C14.212 31.0188 14.4184 31.1183 14.6391 31.1687C14.8597 31.2191 15.0889 31.2192 15.3096 31.1689H36.9178C37.1119 31.173 37.3047 31.1378 37.4848 31.0654C37.665 30.9931 37.8286 30.885 37.9658 30.7477C38.1031 30.6105 38.2111 30.4469 38.2835 30.2668C38.3559 30.0867 38.3911 29.8938 38.387 29.6997C38.4003 29.5033 38.3715 29.3064 38.3024 29.1221C38.2333 28.9378 38.1255 28.7704 37.9863 28.6312C37.8471 28.492 37.6798 28.3842 37.4955 28.3151C37.3111 28.246 37.1142 28.2172 36.9178 28.2305Z" fill="#03456B"/>
<path id="Vector_7" d="M36.9178 37.4603H15.3096C15.1083 37.4459 14.9062 37.473 14.7159 37.5401C14.5256 37.6072 14.3512 37.7128 14.2035 37.8503C14.0558 37.9878 13.938 38.1543 13.8574 38.3393C13.7769 38.5243 13.7353 38.7239 13.7353 38.9257C13.7353 39.1275 13.7769 39.3271 13.8574 39.5122C13.938 39.6972 14.0558 39.8636 14.2035 40.0011C14.3512 40.1386 14.5256 40.2442 14.7159 40.3113C14.9062 40.3784 15.1083 40.4056 15.3096 40.3911H36.9178C37.1191 40.4056 37.3212 40.3784 37.5115 40.3113C37.7018 40.2442 37.8763 40.1386 38.024 40.0011C38.1717 39.8636 38.2895 39.6972 38.37 39.5122C38.4506 39.3271 38.4922 39.1275 38.4922 38.9257C38.4922 38.7239 38.4506 38.5243 38.37 38.3393C38.2895 38.1543 38.1717 37.9878 38.024 37.8503C37.8763 37.7128 37.7018 37.6072 37.5115 37.5401C37.3212 37.473 37.1191 37.4459 36.9178 37.4603Z" fill="#03456B"/>
</g>
<defs>
<clipPath id="clip0_80_2492">
<rect width="46.7123" height="55" fill="white"/>
</clipPath>
</defs>
</svg>
