<svg width="56" height="55" viewBox="0 0 56 55" fill="none" xmlns="http://www.w3.org/2000/svg">
<g id="Capa_1" clip-path="url(#clip0_80_2454)">
<g id="Clip path group">
<mask id="mask0_80_2454" style="mask-type:luminance" maskUnits="userSpaceOnUse" x="0" y="0" width="56" height="55">
<g id="clip-path">
<path id="Vector" d="M55.0673 0H0.0149536V55H55.0673V0Z" fill="white"/>
</g>
</mask>
<g mask="url(#mask0_80_2454)">
<g id="Group">
<path id="Vector_2" d="M7.3124 24.4645C7.3124 24.1413 7.4408 23.8313 7.66936 23.6027C7.89791 23.3742 8.2079 23.2458 8.53113 23.2458H31.7095C32.0327 23.2458 32.3427 23.3742 32.5713 23.6027C32.7998 23.8313 32.9282 24.1413 32.9282 24.4645C32.9282 24.7877 32.7998 25.0977 32.5713 25.3263C32.3427 25.5548 32.0327 25.6832 31.7095 25.6832H8.53113C8.20851 25.6813 7.89966 25.5522 7.67152 25.3241C7.44339 25.096 7.31436 24.7871 7.3124 24.4645ZM8.53113 19.5896H31.7095C32.0327 19.5896 32.3427 19.4612 32.5713 19.2326C32.7998 19.0041 32.9282 18.6941 32.9282 18.3708C32.9282 18.0476 32.7998 17.7376 32.5713 17.5091C32.3427 17.2805 32.0327 17.1521 31.7095 17.1521H8.53113C8.2079 17.1521 7.89791 17.2805 7.66936 17.5091C7.4408 17.7376 7.3124 18.0476 7.3124 18.3708C7.3124 18.6941 7.4408 19.0041 7.66936 19.2326C7.89791 19.4612 8.2079 19.5896 8.53113 19.5896ZM13.4061 13.4959H31.6871C32.0103 13.4959 32.3203 13.3675 32.5488 13.1389C32.7774 12.9104 32.9058 12.6004 32.9058 12.2772C32.9058 11.9539 32.7774 11.644 32.5488 11.4154C32.3203 11.1868 32.0103 11.0584 31.6871 11.0584H13.4061C13.0828 11.0584 12.7728 11.1868 12.5443 11.4154C12.3157 11.644 12.1873 11.9539 12.1873 12.2772C12.1873 12.6004 12.3157 12.9104 12.5443 13.1389C12.7728 13.3675 13.0828 13.4959 13.4061 13.4959ZM8.53113 31.7769H31.7095C32.0327 31.7769 32.3427 31.6485 32.5713 31.4199C32.7998 31.1914 32.9282 30.8814 32.9282 30.5582C32.9282 30.2349 32.7998 29.925 32.5713 29.6964C32.3427 29.4678 32.0327 29.3394 31.7095 29.3394H8.53113C8.2079 29.3394 7.89791 29.4678 7.66936 29.6964C7.4408 29.925 7.3124 30.2349 7.3124 30.5582C7.3124 30.8814 7.4408 31.1914 7.66936 31.4199C7.89791 31.6485 8.2079 31.7769 8.53113 31.7769ZM53.3925 25.2571L40.2182 38.4239V51.2766C40.2162 52.2457 39.8304 53.1745 39.1451 53.8598C38.4599 54.545 37.5311 54.9309 36.562 54.9328H3.66368C3.18291 54.9338 2.70667 54.84 2.26221 54.6567C1.81776 54.4734 1.41382 54.2042 1.07352 53.8646C0.733216 53.525 0.463234 53.1216 0.279025 52.6775C0.0948166 52.2334 -1.00528e-06 51.7574 0 51.2766L0 3.73857C0.00198035 2.77018 0.38806 1.84213 1.07352 1.15807C1.75897 0.474021 2.68781 0.0898417 3.6562 0.0898438H36.5545C37.5236 0.0898357 38.4532 0.473776 39.1399 1.15762C39.8265 1.84146 40.2142 2.76949 40.2182 3.73857V26.3487L44.3305 22.2364L47.3212 19.2456C47.712 18.8259 48.1833 18.4892 48.7071 18.2556C49.2309 18.022 49.7963 17.8963 50.3698 17.886C50.9432 17.8758 51.5128 17.9812 52.0445 18.1959C52.5763 18.4106 53.0594 18.7303 53.4649 19.1358C53.8704 19.5413 54.1901 20.0244 54.4048 20.5562C54.6195 21.088 54.7249 21.6576 54.7147 22.231C54.7044 22.8044 54.5788 23.3698 54.3452 23.8936C54.1116 24.4174 53.7748 24.8887 53.3551 25.2795L53.3925 25.2571ZM37.7807 40.8613L31.4029 47.2316C31.1998 47.4288 30.9367 47.5524 30.6552 47.583L25.9149 48.0092H25.8102C25.4829 48.0089 25.1687 47.88 24.9354 47.6503C24.8105 47.5233 24.715 47.3704 24.6556 47.2025C24.5962 47.0346 24.5743 46.8557 24.5915 46.6783L24.8382 43.9568H8.53113C8.2079 43.9568 7.89791 43.8284 7.66936 43.5998C7.4408 43.3712 7.3124 43.0613 7.3124 42.738C7.3124 42.4148 7.4408 42.1048 7.66936 41.8763C7.89791 41.6477 8.2079 41.5193 8.53113 41.5193H25.1448C25.1983 41.3966 25.2744 41.285 25.3691 41.1903L28.7038 37.8631H8.51618C8.19295 37.8631 7.88296 37.7347 7.6544 37.5061C7.42585 37.2776 7.29744 36.9676 7.29744 36.6444C7.29744 36.3211 7.42585 36.0111 7.6544 35.7826C7.88296 35.554 8.19295 35.4256 8.51618 35.4256H31.1412L37.7807 28.7861V3.73857C37.7788 3.41664 37.6495 3.10856 37.4211 2.88162C37.1928 2.65468 36.8839 2.5273 36.562 2.52731H3.66368C3.50363 2.52633 3.34496 2.55687 3.19671 2.61721C3.04847 2.67755 2.91357 2.7665 2.79971 2.87897C2.68584 2.99145 2.59525 3.12525 2.53309 3.27274C2.47094 3.42023 2.43845 3.57852 2.43747 3.73857V51.2766C2.43943 51.5993 2.56846 51.9081 2.79659 52.1362C3.02472 52.3644 3.33358 52.4934 3.6562 52.4954H36.5545C36.8771 52.4934 37.186 52.3644 37.4141 52.1362C37.6423 51.9081 37.7713 51.5993 37.7733 51.2766L37.7807 40.8613ZM27.9561 42.0576L27.4103 42.6109L27.1486 45.4521L29.9898 45.1979L30.5431 44.6446L27.9561 42.0576ZM47.7773 27.4104L45.1978 24.8234L29.6833 40.3753L32.2628 42.9623L47.7773 27.4104ZM51.6504 20.9354C51.3045 20.6006 50.842 20.4134 50.3606 20.4134C49.8792 20.4134 49.4167 20.6006 49.0708 20.9354L46.925 23.1037L49.5045 25.6832L51.6504 23.5299C51.8228 23.3607 51.9599 23.1589 52.0534 22.9361C52.147 22.7134 52.1951 22.4742 52.1951 22.2327C52.1951 21.9911 52.147 21.7519 52.0534 21.5292C51.9599 21.3064 51.8228 21.1046 51.6504 20.9354Z" fill="#810144"/>
</g>
</g>
</g>
</g>
<defs>
<clipPath id="clip0_80_2454">
<rect width="55.0598" height="55" fill="white"/>
</clipPath>
</defs>
</svg>
